# xmcd
#
# Track frame offsets:
# 225
# 8822
# 15100
# 24641
# 32325
# 39867
# 48095
# 54332
# 65438
# 75498
# 84632
# 93229
#
# Disc length: 1358 seconds
#
#
# Revision: 0
# Processed by: cddbd v1.5PL3 Copyright (c) Steve Scherf et al.
# Submitted via: FreeRIP 2.51 
#
DISCID=73054b0c
DTITLE=Emile Lavallee - Hommage a Neil Gaudry
DYEAR=2000
DGENRE=Other
TTITLE0=Crooked Stovepipe
TTITLE1=La Grondeuse
TTITLE2=Valse Neil Gaudry
TTITLE3=Tina's Reel
TTITLE4=Seven Mile Chase
TTITLE5=Pearl Swing
TTITLE6=Red Wing
TTITLE7=Never Alone Watlz
TTITLE8=Stan's Jig
TTITLE9=Hill Top
TTITLE10=Happy Acres
TTITLE11=Turkey In The Straw
EXTD=
EXTT0=
EXTT1=
EXTT2=
EXTT3=
EXTT4=
EXTT5=
EXTT6=
EXTT7=
EXTT8=
EXTT9=
EXTT10=
EXTT11=
PLAYORDER=
